<mxfile host="Electron" modified="2024-07-22T16:30:10.650Z" agent="Mozilla/5.0 (Windows NT 10.0; Win64; x64) AppleWebKit/537.36 (KHTML, like Gecko) draw.io/24.5.3 Chrome/124.0.6367.207 Electron/30.0.6 Safari/537.36" etag="Dv4_LUs3n1S5DwR8mFuE" version="24.5.3" type="device">
  <diagram name="INICIO" id="7L5nBzuBGl_KogjX439_">
    <mxGraphModel dx="1050" dy="629" grid="1" gridSize="10" guides="1" tooltips="1" connect="1" arrows="1" fold="1" page="1" pageScale="1" pageWidth="827" pageHeight="1169" math="0" shadow="0">
      <root>
        <mxCell id="0" />
        <mxCell id="1" parent="0" />
        <mxCell id="4GzO2HuCPR0ZWuBhqW5l-5" value="" style="edgeStyle=orthogonalEdgeStyle;rounded=0;orthogonalLoop=1;jettySize=auto;html=1;" parent="1" source="4GzO2HuCPR0ZWuBhqW5l-1" target="4GzO2HuCPR0ZWuBhqW5l-4" edge="1">
          <mxGeometry relative="1" as="geometry" />
        </mxCell>
        <mxCell id="4GzO2HuCPR0ZWuBhqW5l-1" value="INICIO" style="strokeWidth=2;html=1;shape=mxgraph.flowchart.start_1;whiteSpace=wrap;" parent="1" vertex="1">
          <mxGeometry x="60" y="20" width="100" height="60" as="geometry" />
        </mxCell>
        <mxCell id="4GzO2HuCPR0ZWuBhqW5l-10" value="" style="edgeStyle=orthogonalEdgeStyle;rounded=0;orthogonalLoop=1;jettySize=auto;html=1;" parent="1" source="4GzO2HuCPR0ZWuBhqW5l-2" target="4GzO2HuCPR0ZWuBhqW5l-9" edge="1">
          <mxGeometry relative="1" as="geometry" />
        </mxCell>
        <UserObject label="FINALIZAR" link="data:page/id,deDDoAH28g8LAlweGlOw" id="4GzO2HuCPR0ZWuBhqW5l-2">
          <mxCell style="shape=process;whiteSpace=wrap;html=1;backgroundOutline=1;" parent="1" vertex="1">
            <mxGeometry x="50" y="400" width="120" height="60" as="geometry" />
          </mxCell>
        </UserObject>
        <mxCell id="4GzO2HuCPR0ZWuBhqW5l-7" value="" style="edgeStyle=orthogonalEdgeStyle;rounded=0;orthogonalLoop=1;jettySize=auto;html=1;" parent="1" source="4GzO2HuCPR0ZWuBhqW5l-3" target="4GzO2HuCPR0ZWuBhqW5l-2" edge="1">
          <mxGeometry relative="1" as="geometry" />
        </mxCell>
        <UserObject label="PROCESSAR&amp;nbsp;&lt;div&gt;ATÃ‰ EOF&lt;/div&gt;" link="data:page/id,35Z_oa8MOofcNe-zF00D" id="4GzO2HuCPR0ZWuBhqW5l-3">
          <mxCell style="shape=process;whiteSpace=wrap;html=1;backgroundOutline=1;" parent="1" vertex="1">
            <mxGeometry x="50" y="270" width="120" height="60" as="geometry" />
          </mxCell>
        </UserObject>
        <mxCell id="4GzO2HuCPR0ZWuBhqW5l-6" value="" style="edgeStyle=orthogonalEdgeStyle;rounded=0;orthogonalLoop=1;jettySize=auto;html=1;" parent="1" source="4GzO2HuCPR0ZWuBhqW5l-4" target="4GzO2HuCPR0ZWuBhqW5l-3" edge="1">
          <mxGeometry relative="1" as="geometry" />
        </mxCell>
        <mxCell id="8_iH0kpdrprveCnPVCKy-1" value="" style="edgeStyle=orthogonalEdgeStyle;rounded=0;orthogonalLoop=1;jettySize=auto;html=1;" parent="1" source="4GzO2HuCPR0ZWuBhqW5l-4" target="4GzO2HuCPR0ZWuBhqW5l-3" edge="1">
          <mxGeometry relative="1" as="geometry" />
        </mxCell>
        <UserObject label="INICIALIZAR" link="data:page/id,H3YtWCjim-SREWDC36Ih" id="4GzO2HuCPR0ZWuBhqW5l-4">
          <mxCell style="shape=process;whiteSpace=wrap;html=1;backgroundOutline=1;" parent="1" vertex="1">
            <mxGeometry x="50" y="140" width="120" height="60" as="geometry" />
          </mxCell>
        </UserObject>
        <mxCell id="4GzO2HuCPR0ZWuBhqW5l-9" value="FIM" style="strokeWidth=2;html=1;shape=mxgraph.flowchart.start_1;whiteSpace=wrap;" parent="1" vertex="1">
          <mxGeometry x="60" y="534.5" width="100" height="60" as="geometry" />
        </mxCell>
        <mxCell id="o9PiHeplSxoUp35Gi4G2-1" value="" style="edgeStyle=orthogonalEdgeStyle;rounded=0;orthogonalLoop=1;jettySize=auto;html=1;" parent="1" source="o9PiHeplSxoUp35Gi4G2-2" target="o9PiHeplSxoUp35Gi4G2-4" edge="1">
          <mxGeometry relative="1" as="geometry" />
        </mxCell>
        <mxCell id="o9PiHeplSxoUp35Gi4G2-2" value="INICIALIZAR" style="strokeWidth=2;html=1;shape=mxgraph.flowchart.start_1;whiteSpace=wrap;" parent="1" vertex="1">
          <mxGeometry x="260" y="20" width="100" height="60" as="geometry" />
        </mxCell>
        <mxCell id="o9PiHeplSxoUp35Gi4G2-3" value="" style="edgeStyle=orthogonalEdgeStyle;rounded=0;orthogonalLoop=1;jettySize=auto;html=1;" parent="1" source="o9PiHeplSxoUp35Gi4G2-4" target="o9PiHeplSxoUp35Gi4G2-7" edge="1">
          <mxGeometry relative="1" as="geometry" />
        </mxCell>
        <mxCell id="o9PiHeplSxoUp35Gi4G2-4" value="ABRIR ARQ&lt;div&gt;CLIENTES&lt;/div&gt;" style="shape=parallelogram;perimeter=parallelogramPerimeter;whiteSpace=wrap;html=1;fixedSize=1;" parent="1" vertex="1">
          <mxGeometry x="250" y="140" width="120" height="60" as="geometry" />
        </mxCell>
        <mxCell id="o9PiHeplSxoUp35Gi4G2-5" style="edgeStyle=orthogonalEdgeStyle;rounded=0;orthogonalLoop=1;jettySize=auto;html=1;exitX=1;exitY=0.5;exitDx=0;exitDy=0;exitPerimeter=0;entryX=0.5;entryY=0;entryDx=0;entryDy=0;" parent="1" source="o9PiHeplSxoUp35Gi4G2-7" edge="1">
          <mxGeometry relative="1" as="geometry">
            <mxPoint x="460" y="380" as="targetPoint" />
          </mxGeometry>
        </mxCell>
        <mxCell id="o9PiHeplSxoUp35Gi4G2-6" value="SIM" style="edgeLabel;html=1;align=center;verticalAlign=middle;resizable=0;points=[];" parent="o9PiHeplSxoUp35Gi4G2-5" vertex="1" connectable="0">
          <mxGeometry x="-0.5324" y="3" relative="1" as="geometry">
            <mxPoint as="offset" />
          </mxGeometry>
        </mxCell>
        <mxCell id="o9PiHeplSxoUp35Gi4G2-7" value="ARQ CLIENTES&lt;div&gt;EXISTE&lt;/div&gt;" style="strokeWidth=2;html=1;shape=mxgraph.flowchart.decision;whiteSpace=wrap;" parent="1" vertex="1">
          <mxGeometry x="260" y="260" width="100" height="100" as="geometry" />
        </mxCell>
        <mxCell id="o9PiHeplSxoUp35Gi4G2-8" value="" style="edgeStyle=orthogonalEdgeStyle;rounded=0;orthogonalLoop=1;jettySize=auto;html=1;" parent="1" source="o9PiHeplSxoUp35Gi4G2-9" target="o9PiHeplSxoUp35Gi4G2-13" edge="1">
          <mxGeometry relative="1" as="geometry" />
        </mxCell>
        <mxCell id="o9PiHeplSxoUp35Gi4G2-9" value="" style="strokeWidth=2;html=1;shape=mxgraph.flowchart.start_2;whiteSpace=wrap;" parent="1" vertex="1">
          <mxGeometry x="290" y="500" width="40" height="30" as="geometry" />
        </mxCell>
        <mxCell id="o9PiHeplSxoUp35Gi4G2-10" style="edgeStyle=orthogonalEdgeStyle;rounded=0;orthogonalLoop=1;jettySize=auto;html=1;exitX=0.5;exitY=1;exitDx=0;exitDy=0;exitPerimeter=0;entryX=0.5;entryY=0;entryDx=0;entryDy=0;entryPerimeter=0;" parent="1" source="o9PiHeplSxoUp35Gi4G2-7" target="o9PiHeplSxoUp35Gi4G2-9" edge="1">
          <mxGeometry relative="1" as="geometry" />
        </mxCell>
        <mxCell id="o9PiHeplSxoUp35Gi4G2-11" value="NAO" style="edgeLabel;html=1;align=center;verticalAlign=middle;resizable=0;points=[];" parent="o9PiHeplSxoUp35Gi4G2-10" vertex="1" connectable="0">
          <mxGeometry x="-0.1893" y="-4" relative="1" as="geometry">
            <mxPoint as="offset" />
          </mxGeometry>
        </mxCell>
        <mxCell id="o9PiHeplSxoUp35Gi4G2-13" value="FIM-INICIALIZAR" style="strokeWidth=2;html=1;shape=mxgraph.flowchart.start_1;whiteSpace=wrap;" parent="1" vertex="1">
          <mxGeometry x="260" y="594.5" width="100" height="60" as="geometry" />
        </mxCell>
        <UserObject label="TESTAR VAZIO" link="data:page/id,frfdRMNHUIXEiVPiFKcC" id="UTSOBOzlFbQW-pdvA3EJ-1">
          <mxCell style="shape=process;whiteSpace=wrap;html=1;backgroundOutline=1;" parent="1" vertex="1">
            <mxGeometry x="400" y="380" width="120" height="60" as="geometry" />
          </mxCell>
        </UserObject>
        <mxCell id="UTSOBOzlFbQW-pdvA3EJ-2" style="edgeStyle=orthogonalEdgeStyle;rounded=0;orthogonalLoop=1;jettySize=auto;html=1;exitX=0.5;exitY=1;exitDx=0;exitDy=0;entryX=1;entryY=0.5;entryDx=0;entryDy=0;entryPerimeter=0;" parent="1" source="UTSOBOzlFbQW-pdvA3EJ-1" target="o9PiHeplSxoUp35Gi4G2-9" edge="1">
          <mxGeometry relative="1" as="geometry" />
        </mxCell>
        <mxCell id="pbjN5mOLl254sgPktkxY-1" value="" style="edgeStyle=orthogonalEdgeStyle;rounded=0;orthogonalLoop=1;jettySize=auto;html=1;" parent="1" source="pbjN5mOLl254sgPktkxY-2" target="pbjN5mOLl254sgPktkxY-4" edge="1">
          <mxGeometry relative="1" as="geometry" />
        </mxCell>
        <mxCell id="pbjN5mOLl254sgPktkxY-2" value="PROCESSAR" style="strokeWidth=2;html=1;shape=mxgraph.flowchart.start_1;whiteSpace=wrap;" parent="1" vertex="1">
          <mxGeometry x="620" y="20" width="100" height="60" as="geometry" />
        </mxCell>
        <mxCell id="pbjN5mOLl254sgPktkxY-3" value="" style="edgeStyle=orthogonalEdgeStyle;rounded=0;orthogonalLoop=1;jettySize=auto;html=1;" parent="1" source="pbjN5mOLl254sgPktkxY-4" target="pbjN5mOLl254sgPktkxY-6" edge="1">
          <mxGeometry relative="1" as="geometry" />
        </mxCell>
        <mxCell id="pbjN5mOLl254sgPktkxY-4" value="ACUM-LIDO = ACUM-LIDO + 1&lt;div&gt;&lt;br&gt;&lt;/div&gt;&lt;div&gt;ACUM-ACHADO = ACUM-ACHAO + 1&lt;br&gt;&lt;/div&gt;" style="rounded=1;whiteSpace=wrap;html=1;absoluteArcSize=1;arcSize=14;strokeWidth=2;" parent="1" vertex="1">
          <mxGeometry x="610" y="140" width="120" height="100" as="geometry" />
        </mxCell>
        <mxCell id="pbjN5mOLl254sgPktkxY-5" value="" style="edgeStyle=orthogonalEdgeStyle;rounded=0;orthogonalLoop=1;jettySize=auto;html=1;" parent="1" source="pbjN5mOLl254sgPktkxY-6" target="pbjN5mOLl254sgPktkxY-8" edge="1">
          <mxGeometry relative="1" as="geometry" />
        </mxCell>
        <mxCell id="pbjN5mOLl254sgPktkxY-6" value="REGISTRO&amp;nbsp;&lt;div&gt;CLIENTES&lt;/div&gt;" style="strokeWidth=2;html=1;shape=mxgraph.flowchart.display;whiteSpace=wrap;" parent="1" vertex="1">
          <mxGeometry x="620" y="300" width="100" height="60" as="geometry" />
        </mxCell>
        <mxCell id="pbjN5mOLl254sgPktkxY-7" value="" style="edgeStyle=orthogonalEdgeStyle;rounded=0;orthogonalLoop=1;jettySize=auto;html=1;" parent="1" source="pbjN5mOLl254sgPktkxY-8" target="pbjN5mOLl254sgPktkxY-9" edge="1">
          <mxGeometry relative="1" as="geometry" />
        </mxCell>
        <UserObject label="LER CLIENTE" link="data:page/id,E5KJQuCq-nyBWsrl7kWx" id="pbjN5mOLl254sgPktkxY-8">
          <mxCell style="shape=process;whiteSpace=wrap;html=1;backgroundOutline=1;" parent="1" vertex="1">
            <mxGeometry x="610" y="421" width="120" height="60" as="geometry" />
          </mxCell>
        </UserObject>
        <mxCell id="pbjN5mOLl254sgPktkxY-9" value="FIM-PROCESSAR" style="strokeWidth=2;html=1;shape=mxgraph.flowchart.start_1;whiteSpace=wrap;" parent="1" vertex="1">
          <mxGeometry x="620" y="540" width="100" height="60" as="geometry" />
        </mxCell>
        <mxCell id="jcjlY3k7IUR3bJKMN634-1" value="" style="edgeStyle=orthogonalEdgeStyle;rounded=0;orthogonalLoop=1;jettySize=auto;html=1;" parent="1" source="jcjlY3k7IUR3bJKMN634-2" target="jcjlY3k7IUR3bJKMN634-4" edge="1">
          <mxGeometry relative="1" as="geometry" />
        </mxCell>
        <mxCell id="jcjlY3k7IUR3bJKMN634-2" value="FINALIZAR" style="strokeWidth=2;html=1;shape=mxgraph.flowchart.start_1;whiteSpace=wrap;" parent="1" vertex="1">
          <mxGeometry x="860" y="20" width="100" height="60" as="geometry" />
        </mxCell>
        <mxCell id="jcjlY3k7IUR3bJKMN634-3" value="" style="edgeStyle=orthogonalEdgeStyle;rounded=0;orthogonalLoop=1;jettySize=auto;html=1;" parent="1" source="jcjlY3k7IUR3bJKMN634-4" target="jcjlY3k7IUR3bJKMN634-6" edge="1">
          <mxGeometry relative="1" as="geometry" />
        </mxCell>
        <mxCell id="jcjlY3k7IUR3bJKMN634-4" value="ACUM-LIDO&lt;div&gt;&amp;nbsp; ACUM-ACHADO&lt;/div&gt;" style="strokeWidth=2;html=1;shape=mxgraph.flowchart.display;whiteSpace=wrap;" parent="1" vertex="1">
          <mxGeometry x="860" y="140" width="100" height="60" as="geometry" />
        </mxCell>
        <mxCell id="jcjlY3k7IUR3bJKMN634-5" value="" style="edgeStyle=orthogonalEdgeStyle;rounded=0;orthogonalLoop=1;jettySize=auto;html=1;" parent="1" source="jcjlY3k7IUR3bJKMN634-6" target="jcjlY3k7IUR3bJKMN634-7" edge="1">
          <mxGeometry relative="1" as="geometry" />
        </mxCell>
        <mxCell id="jcjlY3k7IUR3bJKMN634-6" value="FECHA&lt;div&gt;ARQ CLIENTES&lt;/div&gt;" style="shape=parallelogram;perimeter=parallelogramPerimeter;whiteSpace=wrap;html=1;fixedSize=1;" parent="1" vertex="1">
          <mxGeometry x="850" y="260" width="120" height="60" as="geometry" />
        </mxCell>
        <mxCell id="jcjlY3k7IUR3bJKMN634-7" value="FIM-FINALIZAR" style="strokeWidth=2;html=1;shape=mxgraph.flowchart.start_1;whiteSpace=wrap;" parent="1" vertex="1">
          <mxGeometry x="860" y="380" width="100" height="60" as="geometry" />
        </mxCell>
        <mxCell id="hUP4RfDfS7Kk7oUbCN3F-1" value="" style="edgeStyle=orthogonalEdgeStyle;rounded=0;orthogonalLoop=1;jettySize=auto;html=1;" parent="1" source="hUP4RfDfS7Kk7oUbCN3F-5" target="hUP4RfDfS7Kk7oUbCN3F-3" edge="1">
          <mxGeometry relative="1" as="geometry" />
        </mxCell>
        <mxCell id="hUP4RfDfS7Kk7oUbCN3F-2" value="TESTAR VAZIO" style="strokeWidth=2;html=1;shape=mxgraph.flowchart.start_1;whiteSpace=wrap;" parent="1" vertex="1">
          <mxGeometry x="1070" y="20" width="100" height="60" as="geometry" />
        </mxCell>
        <mxCell id="hUP4RfDfS7Kk7oUbCN3F-3" value="ARQ CLIENTE&amp;nbsp;&lt;div&gt;VAZIO&lt;/div&gt;" style="strokeWidth=2;html=1;shape=mxgraph.flowchart.decision;whiteSpace=wrap;" parent="1" vertex="1">
          <mxGeometry x="1070" y="250" width="100" height="100" as="geometry" />
        </mxCell>
        <mxCell id="hUP4RfDfS7Kk7oUbCN3F-4" value="" style="edgeStyle=orthogonalEdgeStyle;rounded=0;orthogonalLoop=1;jettySize=auto;html=1;" parent="1" source="hUP4RfDfS7Kk7oUbCN3F-2" target="hUP4RfDfS7Kk7oUbCN3F-5" edge="1">
          <mxGeometry relative="1" as="geometry">
            <mxPoint x="1120" y="80" as="sourcePoint" />
            <mxPoint x="1120" y="250" as="targetPoint" />
          </mxGeometry>
        </mxCell>
        <UserObject label="LER CLIENTE" link="data:page/id,E5KJQuCq-nyBWsrl7kWx" id="hUP4RfDfS7Kk7oUbCN3F-5">
          <mxCell style="shape=process;whiteSpace=wrap;html=1;backgroundOutline=1;" parent="1" vertex="1">
            <mxGeometry x="1060" y="140" width="120" height="60" as="geometry" />
          </mxCell>
        </UserObject>
        <mxCell id="hUP4RfDfS7Kk7oUbCN3F-6" value="" style="edgeStyle=orthogonalEdgeStyle;rounded=0;orthogonalLoop=1;jettySize=auto;html=1;" parent="1" source="hUP4RfDfS7Kk7oUbCN3F-7" target="hUP4RfDfS7Kk7oUbCN3F-13" edge="1">
          <mxGeometry relative="1" as="geometry" />
        </mxCell>
        <mxCell id="hUP4RfDfS7Kk7oUbCN3F-7" value="" style="strokeWidth=2;html=1;shape=mxgraph.flowchart.start_2;whiteSpace=wrap;" parent="1" vertex="1">
          <mxGeometry x="1100" y="590" width="40" height="30" as="geometry" />
        </mxCell>
        <mxCell id="hUP4RfDfS7Kk7oUbCN3F-8" style="edgeStyle=orthogonalEdgeStyle;rounded=0;orthogonalLoop=1;jettySize=auto;html=1;exitX=0.5;exitY=1;exitDx=0;exitDy=0;exitPerimeter=0;entryX=0.5;entryY=0;entryDx=0;entryDy=0;entryPerimeter=0;" parent="1" source="hUP4RfDfS7Kk7oUbCN3F-3" target="hUP4RfDfS7Kk7oUbCN3F-7" edge="1">
          <mxGeometry relative="1" as="geometry" />
        </mxCell>
        <mxCell id="hUP4RfDfS7Kk7oUbCN3F-9" value="NAO" style="edgeLabel;html=1;align=center;verticalAlign=middle;resizable=0;points=[];" parent="hUP4RfDfS7Kk7oUbCN3F-8" vertex="1" connectable="0">
          <mxGeometry x="-0.1893" y="-1" relative="1" as="geometry">
            <mxPoint as="offset" />
          </mxGeometry>
        </mxCell>
        <mxCell id="hUP4RfDfS7Kk7oUbCN3F-10" value="" style="edgeStyle=orthogonalEdgeStyle;rounded=0;orthogonalLoop=1;jettySize=auto;html=1;exitX=1;exitY=0.5;exitDx=0;exitDy=0;exitPerimeter=0;entryX=0.5;entryY=0;entryDx=0;entryDy=0;" parent="1" source="hUP4RfDfS7Kk7oUbCN3F-3" target="hUP4RfDfS7Kk7oUbCN3F-12" edge="1">
          <mxGeometry relative="1" as="geometry">
            <mxPoint x="1170" y="300" as="sourcePoint" />
            <mxPoint x="1260" y="460" as="targetPoint" />
          </mxGeometry>
        </mxCell>
        <mxCell id="hUP4RfDfS7Kk7oUbCN3F-11" value="SIM" style="edgeLabel;html=1;align=center;verticalAlign=middle;resizable=0;points=[];" parent="hUP4RfDfS7Kk7oUbCN3F-10" vertex="1" connectable="0">
          <mxGeometry x="-0.5441" y="1" relative="1" as="geometry">
            <mxPoint as="offset" />
          </mxGeometry>
        </mxCell>
        <mxCell id="hUP4RfDfS7Kk7oUbCN3F-12" value="NAO TEM REGISTRO" style="strokeWidth=2;html=1;shape=mxgraph.flowchart.display;whiteSpace=wrap;" parent="1" vertex="1">
          <mxGeometry x="1230" y="430" width="100" height="60" as="geometry" />
        </mxCell>
        <mxCell id="hUP4RfDfS7Kk7oUbCN3F-13" value="FIM-TESTAR VAZIO" style="strokeWidth=2;html=1;shape=mxgraph.flowchart.start_1;whiteSpace=wrap;" parent="1" vertex="1">
          <mxGeometry x="1070" y="690" width="100" height="60" as="geometry" />
        </mxCell>
        <mxCell id="hUP4RfDfS7Kk7oUbCN3F-14" style="edgeStyle=orthogonalEdgeStyle;rounded=0;orthogonalLoop=1;jettySize=auto;html=1;entryX=1;entryY=0.5;entryDx=0;entryDy=0;entryPerimeter=0;" parent="1" source="hUP4RfDfS7Kk7oUbCN3F-12" target="hUP4RfDfS7Kk7oUbCN3F-7" edge="1">
          <mxGeometry relative="1" as="geometry">
            <Array as="points">
              <mxPoint x="1280" y="605" />
            </Array>
          </mxGeometry>
        </mxCell>
        <mxCell id="o73klWyjyKaMH1yVxhfO-1" value="" style="edgeStyle=orthogonalEdgeStyle;rounded=0;orthogonalLoop=1;jettySize=auto;html=1;" parent="1" source="o73klWyjyKaMH1yVxhfO-2" target="o73klWyjyKaMH1yVxhfO-4" edge="1">
          <mxGeometry relative="1" as="geometry" />
        </mxCell>
        <mxCell id="o73klWyjyKaMH1yVxhfO-2" value="LER CLIENTE" style="strokeWidth=2;html=1;shape=mxgraph.flowchart.start_1;whiteSpace=wrap;" parent="1" vertex="1">
          <mxGeometry x="1400" y="20" width="100" height="60" as="geometry" />
        </mxCell>
        <mxCell id="o73klWyjyKaMH1yVxhfO-3" value="" style="edgeStyle=orthogonalEdgeStyle;rounded=0;orthogonalLoop=1;jettySize=auto;html=1;" parent="1" source="o73klWyjyKaMH1yVxhfO-4" target="o73klWyjyKaMH1yVxhfO-5" edge="1">
          <mxGeometry relative="1" as="geometry" />
        </mxCell>
        <mxCell id="o73klWyjyKaMH1yVxhfO-4" value="LER ARQ&lt;div&gt;&amp;nbsp;CLIENTE&lt;/div&gt;" style="shape=parallelogram;perimeter=parallelogramPerimeter;whiteSpace=wrap;html=1;fixedSize=1;" parent="1" vertex="1">
          <mxGeometry x="1390" y="140" width="120" height="60" as="geometry" />
        </mxCell>
        <mxCell id="o73klWyjyKaMH1yVxhfO-5" value="FIM-LER CLIENTE" style="strokeWidth=2;html=1;shape=mxgraph.flowchart.start_1;whiteSpace=wrap;" parent="1" vertex="1">
          <mxGeometry x="1400" y="260" width="100" height="60" as="geometry" />
        </mxCell>
      </root>
    </mxGraphModel>
  </diagram>
</mxfile>
